<?xml version="1.0" encoding="UTF-8" standalone="no"?>
<!-- Created with Inkscape (http://www.inkscape.org/) -->

<svg
   xmlns:dc="http://purl.org/dc/elements/1.1/"
   xmlns:cc="http://creativecommons.org/ns#"
   xmlns:rdf="http://www.w3.org/1999/02/22-rdf-syntax-ns#"
   xmlns:svg="http://www.w3.org/2000/svg"
   xmlns="http://www.w3.org/2000/svg"
   xmlns:xlink="http://www.w3.org/1999/xlink"
   xmlns:sodipodi="http://sodipodi.sourceforge.net/DTD/sodipodi-0.dtd"
   xmlns:inkscape="http://www.inkscape.org/namespaces/inkscape"
   id="svg1"
   sodipodi:version="0.32"
   inkscape:version="0.48.5 r10040"
   width="400.00000pt"
   height="400.00000pt"
   sodipodi:docname="cherry.svg"
   version="1.1">
  <metadata
     id="metadata17" />
  <defs
     id="defs3">
    <linearGradient
       id="linearGradient829">
      <stop
         style="stop-color:#ffffff;stop-opacity:0.52499998;"
         offset="0.0000000"
         id="stop830" />
      <stop
         style="stop-color:#ffffff;stop-opacity:0.0000000;"
         offset="1.0000000"
         id="stop831" />
    </linearGradient>
    <radialGradient
       xlink:href="#linearGradient829"
       id="radialGradient832"
       gradientTransform="scale(0.8196665,1.2200084)"
       cx="364.46712"
       cy="260.58777"
       fx="364.46712"
       fy="260.58777"
       r="66.631051"
       gradientUnits="userSpaceOnUse" />
    <radialGradient
       inkscape:collect="always"
       xlink:href="#linearGradient829"
       id="radialGradient3042"
       gradientUnits="userSpaceOnUse"
       gradientTransform="matrix(-1.0291497,-0.23696004,-0.21246318,0.92275656,573.35826,-6.9206109)"
       cx="99.424932"
       cy="346.22589"
       fx="99.424932"
       fy="346.22589"
       r="46.182893" />
    <radialGradient
       inkscape:collect="always"
       xlink:href="#linearGradient829"
       id="radialGradient3047"
       gradientUnits="userSpaceOnUse"
       gradientTransform="matrix(-0.79876688,-0.18391476,-0.2737425,1.188901,539.66863,72.54642)"
       cx="364.46712"
       cy="260.58777"
       fx="364.46712"
       fy="260.58777"
       r="66.631051" />
    <radialGradient
       inkscape:collect="always"
       xlink:href="#linearGradient829"
       id="radialGradient3050"
       gradientUnits="userSpaceOnUse"
       gradientTransform="matrix(-1.0291497,-0.23696004,-0.21246318,0.92275656,539.66863,72.54642)"
       cx="99.424932"
       cy="346.22589"
       fx="99.424932"
       fy="346.22589"
       r="46.182893" />
    <radialGradient
       inkscape:collect="always"
       xlink:href="#linearGradient829"
       id="radialGradient3089"
       gradientUnits="userSpaceOnUse"
       gradientTransform="matrix(-1.0291497,-0.23696004,-0.21246318,0.92275656,539.66863,72.54642)"
       cx="99.424932"
       cy="346.22589"
       fx="99.424932"
       fy="346.22589"
       r="46.182893" />
    <radialGradient
       inkscape:collect="always"
       xlink:href="#linearGradient829"
       id="radialGradient3091"
       gradientUnits="userSpaceOnUse"
       gradientTransform="matrix(-0.79876688,-0.18391476,-0.2737425,1.188901,539.66863,72.54642)"
       cx="364.46712"
       cy="260.58777"
       fx="364.46712"
       fy="260.58777"
       r="66.631051" />
    <radialGradient
       inkscape:collect="always"
       xlink:href="#linearGradient829"
       id="radialGradient3093"
       gradientUnits="userSpaceOnUse"
       gradientTransform="matrix(-1.0291497,-0.23696004,-0.21246318,0.92275656,573.35826,-6.9206109)"
       cx="99.424932"
       cy="346.22589"
       fx="99.424932"
       fy="346.22589"
       r="46.182893" />
  </defs>
  <sodipodi:namedview
     id="base"
     pagecolor="#ffffff"
     bordercolor="#666666"
     borderopacity="1.0"
     inkscape:pageopacity="0.0"
     inkscape:pageshadow="2"
     inkscape:zoom="1"
     inkscape:cx="170.32439"
     inkscape:cy="205.27719"
     inkscape:window-width="1440"
     inkscape:window-height="852"
     showgrid="true"
     inkscape:window-x="0"
     inkscape:window-y="0"
     inkscape:window-maximized="1"
     inkscape:current-layer="svg1" />
  <metadata
     id="metadata19">
    <rdf:RDF>
      <cc:Work
         rdf:about="">
        <dc:title></dc:title>
        <dc:rights>
          <cc:Agent>
            <dc:title>Nicu Buculei</dc:title>
          </cc:Agent>
        </dc:rights>
        <dc:type
           rdf:resource="http://purl.org/dc/dcmitype/StillImage" />
        <cc:license
           rdf:resource="http://web.resource.org/cc/PublicDomain" />
        <dc:format>image/svg+xml</dc:format>
      </cc:Work>
      <cc:License
         rdf:about="http://web.resource.org/cc/PublicDomain">
        <cc:permits
           rdf:resource="http://web.resource.org/cc/Reproduction" />
        <cc:permits
           rdf:resource="http://web.resource.org/cc/Distribution" />
        <cc:permits
           rdf:resource="http://web.resource.org/cc/DerivativeWorks" />
      </cc:License>
    </rdf:RDF>
  </metadata>
  <g
     id="g3076"
     transform="matrix(1.0440851,0,0,1.0440851,-12.912699,-7.3952789)">
    <path
       style="fill:#ca0000;fill-rule:evenodd;stroke:#000000;stroke-width:10;stroke-linejoin:round;stroke-dasharray:none"
       d="m 172.11768,234.77111 c 18.69711,-9.74162 112.36274,13.57135 65.51955,122.77628 C 191.58625,451.69917 71.266179,401.18849 54.602143,353.80292 23.964573,264.22993 113.5123,196.3056 172.11768,234.77111 z"
       id="path834"
       sodipodi:nodetypes="cssc"
       inkscape:connector-curvature="0" />
    <path
       inkscape:connector-curvature="0"
       sodipodi:nodetypes="cssc"
       id="path3009"
       d="m 337.9158,240.84186 c 16.51197,-13.10863 140.13991,-6.99934 114.84285,109.10432 -27.37217,101.17317 -144.91417,86.67067 -178.2189,48.4367 -67.99876,-79.84546 7.72395,-171.6997 63.37605,-157.54102 z"
       style="fill:#ca0000;fill-rule:evenodd;stroke:#000000;stroke-width:10;stroke-linejoin:round;stroke-dasharray:none" />
    <path
       style="fill:#ca0000;fill-rule:evenodd;stroke:#000000;stroke-width:10;stroke-linejoin:round;stroke-dasharray:none"
       d="m 312.84804,292.4398 c 18.69712,-9.74162 138.92653,19.68762 92.08334,128.89254 -46.05098,94.15178 -158.71403,57.6349 -184.16881,13.78179 -51.63358,-91.28583 40.12544,-167.1239 92.08547,-142.67433 z"
       id="path826"
       sodipodi:nodetypes="cssc"
       inkscape:connector-curvature="0" />
    <path
       style="fill:none;stroke:#000000;stroke-width:10;stroke-linejoin:round;stroke-dasharray:none"
       d="m 195.95133,252.74461 c -0.97002,18.50545 -43.98582,19.52624 -70.45962,-8.41956"
       id="path835"
       sodipodi:nodetypes="cc"
       inkscape:connector-curvature="0" />
    <path
       style="fill:none;stroke:#1a1a1a;stroke-width:10;stroke-linejoin:round;stroke-dasharray:none"
       d="m 335.65791,314.85978 c -0.97003,18.50544 -30.01263,44.59379 -56.48642,16.64801"
       id="path827"
       sodipodi:nodetypes="cc"
       inkscape:connector-curvature="0" />
    <path
       style="fill:url(#radialGradient3089);fill-opacity:1;fill-rule:evenodd;stroke-width:1pt"
       d="m 346.38799,329.5382 c 67.02943,-26.70636 84.79169,81.95241 36.7469,83.37603 -64.15557,7.07853 -97.18474,-56.71273 -36.7469,-83.37603 z"
       id="path828"
       sodipodi:nodetypes="ccc"
       inkscape:connector-curvature="0" />
    <path
       style="fill:url(#radialGradient3091);fill-opacity:1;fill-rule:evenodd;stroke-width:1pt"
       d="M 167.62746,239.98017 C 261.16689,205.33111 237.9423,391.95372 189.89751,393.37734 95.621763,416.93172 107.1896,266.64348 167.62746,239.98017 z"
       id="path836"
       sodipodi:nodetypes="ccc"
       inkscape:connector-curvature="0" />
    <path
       inkscape:connector-curvature="0"
       sodipodi:nodetypes="ccccccccc"
       id="path3015"
       d="m 188.4692,50.725143 c 5.95578,-1.113782 54.08591,35.308133 64.23979,46.391403 C 211.40945,64.190258 186.03383,50.196378 235.56151,83.696259 l 8.36259,7.271288 c 49.56352,27.867203 91.78715,83.960243 107.43957,169.185053 -2.90424,4.25403 -17.70089,9.98996 -20.76581,6.46677 C 310.76389,171.7014 256.45067,116.47138 206.66254,97.299649 c -9.5656,-1.179825 -30.46164,-7.180787 -34.2753,-6.05723 -7.3961,-5.298091 3.60807,-30.860599 16.08196,-40.517276 z"
       style="fill:#552400;fill-rule:evenodd;stroke:#000000;stroke-width:10.88812733;stroke-linejoin:round;stroke-dasharray:none" />
    <path
       style="fill:#552400;fill-rule:evenodd;stroke:#000000;stroke-width:10;stroke-linejoin:round;stroke-dasharray:none"
       d="m 169.37096,13.966276 c 4.92163,2.507968 15.86086,26.195364 20.38035,40.884506 84.57109,71.068968 105.78599,135.664198 118.58019,190.539658 6.73866,28.90273 6.81379,56.42717 6.29439,72.38292 -0.2597,7.97786 -0.88349,13.99747 -1.29361,17.59589 -3.44603,10.36196 -17.10907,4.93648 -15.08953,-1.03719 -2.13619,-9.19105 1.26529,-10.3665 1.51359,-17.9942 0.4966,-15.2554 -0.35343,-38.25447 -6.86049,-66.16387 C 281.52474,201.40224 257.55927,138.68488 188.34529,74.453475 l -3.55196,2.613407 c 19.90491,48.050128 22.47398,112.621228 -14.56481,183.729158 -4.50369,1.49297 -18.41406,-2.56501 -18.62457,-6.85369 39.52169,-80.53531 31.70735,-151.26194 6.71119,-193.073339 -6.22169,-6.200767 -17.87211,-22.252012 -21.25619,-23.557577 -2.32427,-8.00433 17.85215,-23.237591 32.31201,-23.345158 z"
       id="path845"
       sodipodi:nodetypes="ccccccccccccccc"
       inkscape:connector-curvature="0" />
    <path
       inkscape:connector-curvature="0"
       sodipodi:nodetypes="ccc"
       id="path3011"
       d="m 380.07762,250.07116 c 67.02943,-26.70635 84.79169,81.95242 36.7469,83.37604 -64.15557,7.07853 -97.18475,-56.71273 -36.7469,-83.37604 z"
       style="fill:url(#radialGradient3093);fill-opacity:1;fill-rule:evenodd;stroke-width:1pt" />
    <path
       inkscape:connector-curvature="0"
       sodipodi:nodetypes="cc"
       id="path3019"
       d="m 359.50324,248.68138 c 5.4043,10.58897 -8.44772,33.55749 -38.28429,25.68379"
       style="fill:none;stroke:#1a1a1a;stroke-width:7.27170515;stroke-linejoin:round;stroke-dasharray:none" />
  </g>
</svg>
